HIERARCHY
ROOT hip
{
  OFFSET 0 0 0
  CHANNELS 6 Xposition Yposition Zposition Zrotation Yrotation Xrotation
  JOINT abdomen
  {
    OFFSET 0 20.6881 -0.73152
    CHANNELS 3 Zrotation Xrotation Yrotation
    JOINT chest
    {
      OFFSET 0 11.7043 -0.48768
      CHANNELS 3 Zrotation Xrotation Yrotation
      JOINT neck
      {
        OFFSET 0 22.1894 -2.19456
        CHANNELS 3 Zrotation Xrotation Yrotation
        JOINT head
        {
          OFFSET -0.24384 7.07133 1.2192
          CHANNELS 3 Zrotation Xrotation Yrotation
          JOINT leftEye
          {
            OFFSET 4.14528 8.04674 8.04672
            CHANNELS 3 Zrotation Xrotation Yrotation
            End Site
            {
              OFFSET 1 0 0
            }
          }
          JOINT rightEye
          {
            OFFSET -3.6576 8.04674 8.04672
            CHANNELS 3 Zrotation Xrotation Yrotation
            End Site
            {
              OFFSET 1 0 0
            }
          }
        }
      }
      JOINT rCollar
      {
        OFFSET -2.68224 19.2634 -4.8768
        CHANNELS 3 Zrotation Xrotation Yrotation
        JOINT rShldr
        {
          OFFSET -8.77824 -1.95073 1.46304
          CHANNELS 3 Zrotation Xrotation Yrotation
          JOINT rForeArm
          {
            OFFSET -28.1742 -1.7115 0.48768
            CHANNELS 3 Zrotation Xrotation Yrotation
            JOINT rHand
            {
              OFFSET -22.5879 0.773209 7.07136
              CHANNELS 3 Zrotation Xrotation Yrotation
              JOINT rThumb1
              {
                OFFSET -1.2192 -0.487915 3.41376
                CHANNELS 3 Zrotation Xrotation Yrotation
                JOINT rThumb2
                {
                  OFFSET -3.37035 -0.52449 3.41376
                  CHANNELS 3 Zrotation Xrotation Yrotation
                  End Site
                  {
                    OFFSET -1.78271 -1.18214 1.43049
                  }
                }
              }
              JOINT rIndex1
              {
                OFFSET -7.75947 0.938293 5.60832
                CHANNELS 3 Zrotation Xrotation Yrotation
                JOINT rIndex2
                {
                  OFFSET -2.54057 -0.884171 1.56538
                  CHANNELS 3 Zrotation Xrotation Yrotation
                  End Site
                  {
                    OFFSET -1.62519 -0.234802 1.16502
                  }
                }
              }
              JOINT rMid1
              {
                OFFSET -8.24714 1.18213 3.41376
                CHANNELS 3 Zrotation Xrotation Yrotation
                JOINT rMid2
                {
                  OFFSET -3.10165 -0.590103 1.0647
                  CHANNELS 3 Zrotation Xrotation Yrotation
                  End Site
                  {
                    OFFSET -2.48547 -0.328903 0.83742
                  }
                }
              }
              JOINT rRing1
              {
                OFFSET -8.82822 0.546677 1.51678
                CHANNELS 3 Zrotation Xrotation Yrotation
                JOINT rRing2
                {
                  OFFSET -2.60934 -0.819778 -0.0198488
                  CHANNELS 3 Zrotation Xrotation Yrotation
                  End Site
                  {
                    OFFSET -2.33842 -0.294052 0.168128
                  }
                }
              }
              JOINT rPinky1
              {
                OFFSET -8.27202 -0.0477905 -0.4584
                CHANNELS 3 Zrotation Xrotation Yrotation
                JOINT rPinky2
                {
                  OFFSET -1.82734 -0.647385 -0.700984
                  CHANNELS 3 Zrotation Xrotation Yrotation
                  End Site
                  {
                    OFFSET -1.69225 -0.51767 -0.607171
                  }
                }
              }
            }
          }
        }
      }
      JOINT lCollar
      {
        OFFSET 2.68224 19.2634 -4.8768
        CHANNELS 3 Zrotation Xrotation Yrotation
        JOINT lShldr
        {
          OFFSET 8.77824 -1.95073 1.46304
          CHANNELS 3 Zrotation Xrotation Yrotation
          JOINT lForeArm
          {
            OFFSET 28.1742 -1.7115 0.48768
            CHANNELS 3 Zrotation Xrotation Yrotation
            JOINT lHand
            {
              OFFSET 22.5879 0.773209 7.07136
              CHANNELS 3 Zrotation Xrotation Yrotation
              JOINT lThumb1
              {
                OFFSET 1.2192 -0.487915 3.41376
                CHANNELS 3 Zrotation Xrotation Yrotation
                JOINT lThumb2
                {
                  OFFSET 3.37035 -0.52449 3.41376
                  CHANNELS 3 Zrotation Xrotation Yrotation
                  End Site
                  {
                    OFFSET 1.78271 -1.18214 1.43049
                  }
                }
              }
              JOINT lIndex1
              {
                OFFSET 7.75947 0.938293 5.60832
                CHANNELS 3 Zrotation Xrotation Yrotation
                JOINT lIndex2
                {
                  OFFSET 2.54057 -0.884171 1.56538
                  CHANNELS 3 Zrotation Xrotation Yrotation
                  End Site
                  {
                    OFFSET 1.62519 -0.234802 1.16502
                  }
                }
              }
              JOINT lMid1
              {
                OFFSET 8.24714 1.18213 3.41376
                CHANNELS 3 Zrotation Xrotation Yrotation
                JOINT lMid2
                {
                  OFFSET 3.10165 -0.590103 1.0647
                  CHANNELS 3 Zrotation Xrotation Yrotation
                  End Site
                  {
                    OFFSET 2.48547 -0.328903 0.83742
                  }
                }
              }
              JOINT lRing1
              {
                OFFSET 8.82822 0.546677 1.51678
                CHANNELS 3 Zrotation Xrotation Yrotation
                JOINT lRing2
                {
                  OFFSET 2.60934 -0.819778 -0.0198488
                  CHANNELS 3 Zrotation Xrotation Yrotation
                  End Site
                  {
                    OFFSET 2.33842 -0.294052 0.168128
                  }
                }
              }
              JOINT lPinky1
              {
                OFFSET 8.27202 -0.0477905 -0.4584
                CHANNELS 3 Zrotation Xrotation Yrotation
                JOINT lPinky2
                {
                  OFFSET 1.82734 -0.647385 -0.700984
                  CHANNELS 3 Zrotation Xrotation Yrotation
                  End Site
                  {
                    OFFSET 1.69225 -0.51767 -0.607171
                  }
                }
              }
            }
          }
        }
      }
    }
  }
  JOINT rButtock
  {
    OFFSET -8.77824 4.35084 1.2192
    CHANNELS 3 Zrotation Xrotation Yrotation
    JOINT rThigh
    {
      OFFSET 0 -1.70687 -2.19456
      CHANNELS 3 Zrotation Xrotation Yrotation
      JOINT rShin
      {
        OFFSET 0 -36.8199 0.73152
        CHANNELS 3 Zrotation Xrotation Yrotation
        JOINT rFoot
        {
          OFFSET 0.73152 -45.1104 -5.12064
          CHANNELS 3 Zrotation Xrotation Yrotation
          End Site
          {
            OFFSET -1.1221 -3.69964 12.103
          }
        }
      }
    }
  }
  JOINT lButtock
  {
    OFFSET 8.77824 4.35084 1.2192
    CHANNELS 3 Zrotation Xrotation Yrotation
    JOINT lThigh
    {
      OFFSET 0 -1.70687 -2.19456
      CHANNELS 3 Zrotation Xrotation Yrotation
      JOINT lShin
      {
        OFFSET 0 -36.8199 0.73152
        CHANNELS 3 Zrotation Xrotation Yrotation
        JOINT lFoot
        {
          OFFSET -0.73152 -45.1104 -5.12064
          CHANNELS 3 Zrotation Xrotation Yrotation
          End Site
          {
            OFFSET 1.1221 -3.69964 12.103
          }
        }
      }
    }
  }
}
MOTION
Frames:	6
Frame Time:	0.00833333
90.9856 85.2022 105.718 0.0 0.0 0.0 0.602231 -0.00285579 0.0171681 0.166044 -0.00431809 0.0287691 -6.49195e-15 1.59028e-15 8.07563e-17 -1.95663e-14 1.59028e-14 2.3761e-16 -0.0 0.0 0.0 -0.0 0.0 0.0 -3.23168e-15 9.70628e-19 1.49089e-16 -6.80271e-14 -3.54085e-16 1.59028e-15 -1.18004e-12 3.58608e-13 4.13472e-14 -1.35191e-11 -3.25311e-13 1.24042e-13 -3.1886e-11 7.68372e-14 3.62583e-13 -5.50816e-11 1.30403e-13 6.17823e-13 -3.18819e-11 7.59357e-14 3.53042e-13 7.73091 5.47488 0.417314 -3.18857e-11 7.66315e-14 3.62583e-13 2.90554 0.965183 0.102902 -3.1877e-11 7.69297e-14 3.57812e-13 10.2786 0.731801 0.0259123 -3.18934e-11 8.11041e-14 3.59403e-13 2.22167 -0.733487 -0.20892 -3.42783e-15 9.70628e-19 -4.96962e-17 -7.03646e-14 -1.55301e-16 -5.96354e-16 -1.18376e-12 -3.47277e-13 6.36111e-15 -1.35128e-11 3.79082e-13 1.49486e-13 -3.18761e-11 7.2876e-14 3.56222e-13 -5.50387e-11 1.30403e-13 6.21798e-13 -3.18815e-11 7.31528e-14 3.59403e-13 -7.73091 5.47488 -0.417314 -3.18749e-11 7.196e-14 3.49861e-13 -2.90554 0.965183 -0.102902 -3.18847e-11 7.27552e-14 3.60198e-13 -10.2786 0.731801 -0.0259123 -3.18688e-11 7.4743e-14 3.53042e-13 -2.22167 -0.733487 0.20892 -2.03217e-16 0.0 -3.88251e-19 0.985617 -4.60216 -0.0812477 -0.00202359 2.78413 -0.00804957 -0.532802 1.81805 0.0982494 2.03217e-16 0.0 3.88251e-19 -0.0700025 -2.29254 0.0218575 0.00846551 -1.39933 0.0723237 0.526009 3.69177 -0.136061
92.3896 83.9766 97.5495 -179.537 8.8402 -177.598 -1.6987 -0.761191 0.0483069 0.41491 -0.0557376 0.0757176 -0.704982 0.0142264 -0.641663 -0.147009 -2.22687 -1.01278 -0.0 0.0 0.0 -0.0 0.0 0.0 -1.51552e-14 -9.40455e-16 -7.1182e-14 2.48096 -7.17596 13.5074 -4.29616 -1.96744 6.69348 0.00401887 1.42976 0.200729 -8.92121e-11 5.55161e-10 1.37354e-10 -1.53854e-10 9.60654e-10 2.38038e-10 -8.92075e-11 5.55157e-10 1.37342e-10 7.73091 5.47488 0.417314 -8.9213e-11 5.55163e-10 1.37353e-10 2.90554 0.965183 0.102902 -8.92037e-11 5.55162e-10 1.37352e-10 10.2786 0.731801 0.0259123 -8.92184e-11 5.55164e-10 1.37354e-10 2.22167 -0.733487 -0.20892 -1.53064e-14 -9.3926e-16 -7.14262e-14 -8.71295 6.43888 -17.2568 3.73538 -1.61107 -5.92457 -0.00433668 1.46552 -0.205725 2.90115e-10 -1.00492e-08 4.58741e-10 5.03585e-10 -1.74235e-08 7.90985e-10 2.9011e-10 -1.00492e-08 4.58746e-10 -7.73091 5.47488 -0.417314 2.90116e-10 -1.00492e-08 4.58738e-10 -2.90554 0.965183 -0.102902 2.90108e-10 -1.00492e-08 4.58743e-10 -10.2786 0.731801 -0.0259123 2.90121e-10 -1.00492e-08 4.58736e-10 -2.22167 -0.733487 0.20892 -2.03217e-16 0.0 -3.88251e-19 -2.44698 -12.7165 1.50419 -0.00720161 9.80797 0.0930823 -0.529546 1.48147 -2.17307 2.03217e-16 0.0 3.88251e-19 -0.859663 -1.50776 -1.82382 -0.00500016 3.61075 -0.0326459 0.543474 -1.015 1.56978
92.4637 83.9976 96.8729 -179.474 8.2943 -177.529 -4.13094 -1.55057 0.0772398 0.678307 -0.116092 0.123843 -1.45733 0.0158519 -1.32177 -0.368145 -4.56699 -2.0885 -0.0 0.0 0.0 -0.0 0.0 0.0 -2.73442e-14 -1.58973e-15 -1.53101e-13 8.71926 -13.4032 28.4099 -8.34457 -3.95988 13.7992 -0.00268226 2.91137 0.409167 -1.4717e-10 1.16022e-09 2.88286e-10 -2.53714e-10 2.00761e-09 4.99573e-10 -1.47165e-10 1.16021e-09 2.88271e-10 7.73091 5.47488 0.417314 -1.47172e-10 1.16022e-09 2.88284e-10 2.90554 0.965183 0.102902 -1.47162e-10 1.16022e-09 2.88286e-10 10.2786 0.731801 0.0259123 -1.47175e-10 1.16022e-09 2.8829e-10 2.22167 -0.733487 -0.20892 -2.74476e-14 -1.58696e-15 -1.53397e-13 -13.914 11.2482 -36.0594 7.31676 -3.25193 -12.1913 0.00257757 3.02823 -0.425552 6.50979e-10 -2.15115e-08 9.81319e-10 1.12966e-09 -3.72966e-08 1.6921e-09 6.50975e-10 -2.15115e-08 9.81328e-10 -7.73091 5.47488 -0.417314 6.5098e-10 -2.15115e-08 9.81321e-10 -2.90554 0.965183 -0.102902 6.50974e-10 -2.15115e-08 9.8132e-10 -10.2786 0.731801 -0.0259123 6.50984e-10 -2.15115e-08 9.81314e-10 -2.22167 -0.733487 0.20892 -2.03217e-16 0.0 -3.88251e-19 -5.54932 -21.2621 3.30433 -0.0410629 17.3018 0.208021 -0.554622 1.1154 -4.53808 2.03217e-16 0.0 3.88251e-19 -1.6452 -0.715077 -3.77248 0.000857975 8.9502 -0.146215 0.870106 -5.99514 3.40145
92.5395 84.0248 96.1388 -179.517 7.8133 -177.602 -6.2981 -2.27786 0.110659 0.912894 -0.158576 0.169615 -2.11399 0.0426577 -1.92499 -0.678454 -6.67222 -3.05678 -0.0 0.0 0.0 -0.0 0.0 0.0 -3.90023e-14 -2.82331e-15 -2.13844e-13 16.9965 -16.725 42.373 -11.5353 -5.58078 20.1683 -0.0180687 4.28908 0.60369 -2.03864e-10 1.66533e-09 4.11337e-10 -3.51398e-10 2.8817e-09 7.12879e-10 -2.03859e-10 1.66532e-09 4.1132e-10 7.73091 5.47488 0.417314 -2.03868e-10 1.66533e-09 4.11335e-10 2.90554 0.965183 0.102902 -2.03857e-10 1.66533e-09 4.11339e-10 10.2786 0.731801 0.0259123 -2.03868e-10 1.66533e-09 4.11344e-10 2.22167 -0.733487 -0.20892 -3.90636e-14 -2.81972e-15 -2.14179e-13 -16.0593 12.4425 -53.1965 10.2217 -4.62689 -17.8267 0.018641 4.39633 -0.618792 9.34097e-10 -3.01477e-08 1.37551e-09 1.62083e-09 -5.22706e-08 2.37171e-09 9.34093e-10 -3.01477e-08 1.37552e-09 -7.73091 5.47488 -0.417314 9.34098e-10 -3.01477e-08 1.37551e-09 -2.90554 0.965183 -0.102902 9.34093e-10 -3.01477e-08 1.37551e-09 -10.2786 0.731801 -0.0259123 9.34101e-10 -3.01477e-08 1.3755e-09 -2.22167 -0.733487 0.20892 -2.03217e-16 0.0 -3.88251e-19 -7.79767 -28.8575 5.21259 -0.097999 23.8554 0.318451 -0.60302 0.805952 -6.7141 2.03217e-16 0.0 3.88251e-19 -2.2875 0.0592245 -5.51326 0.0242013 13.6308 -0.249371 1.42795 -10.3899 5.06339
92.6033 84.0417 95.5264 -179.64 7.0724 -177.511 -7.80369 -2.84993 0.155253 1.07523 -0.156384 0.209505 -2.5307 0.13239 -2.33601 -1.04574 -8.19812 -3.73937 -0.0 0.0 0.0 -0.0 0.0 0.0 -4.93332e-14 -5.51763e-15 -2.21645e-13 23.8664 -17.3927 52.2446 -13.5292 -6.58084 24.6117 -0.0359938 5.4072 0.762219 -2.57402e-10 1.92056e-09 4.64689e-10 -4.43641e-10 3.32361e-09 8.05612e-10 -2.57396e-10 1.92054e-09 4.64669e-10 7.73091 5.47488 0.417314 -2.57406e-10 1.92056e-09 4.64685e-10 2.90554 0.965183 0.102902 -2.57395e-10 1.92056e-09 4.64692e-10 10.2786 0.731801 0.0259123 -2.57405e-10 1.92056e-09 4.64698e-10 2.22167 -0.733487 -0.20892 -4.93667e-14 -5.51511e-15 -2.21993e-13 -16.9145 11.1217 -64.9534 12.1159 -5.5303 -21.8345 0.0342907 5.27818 -0.743926 1.02285e-09 -3.17187e-08 1.44873e-09 1.77477e-09 -5.49971e-08 2.49756e-09 1.02285e-09 -3.17187e-08 1.44874e-09 -7.73091 5.47488 -0.417314 1.02285e-09 -3.17187e-08 1.44873e-09 -2.90554 0.965183 -0.102902 1.02285e-09 -3.17187e-08 1.44873e-09 -10.2786 0.731801 -0.0259123 1.02285e-09 -3.17187e-08 1.44872e-09 -2.22167 -0.733487 0.20892 -2.03217e-16 0.0 -3.88251e-19 -8.98417 -34.1513 6.92981 -0.150249 28.0583 0.394647 -0.651655 0.637773 -8.41852 2.03217e-16 0.0 3.88251e-19 -2.66697 0.790719 -6.73514 0.0495673 16.6644 -0.3188 1.94838 -13.3624 6.2062
92.6135 84.0427 94.9897 -179.882 6.1265 -177.18 -8.37205 -3.22455 0.230222 1.13259 -0.0772573 0.245483 -2.59772 0.33515 -2.47557 -1.44718 -8.94256 -4.01193 -0.0 0.0 0.0 -0.0 0.0 0.0 -5.97196e-14 -4.36136e-15 -1.38394e-13 26.8281 -17.3661 56.0833 -14.2356 -6.91818 26.2979 -0.0497284 6.20601 0.875788 -3.65235e-10 1.87223e-09 4.14585e-10 -6.29617e-10 3.24129e-09 7.19855e-10 -3.65228e-10 1.87222e-09 4.14567e-10 7.73091 5.47488 0.417314 -3.65238e-10 1.87224e-09 4.14582e-10 2.90554 0.965183 0.102902 -3.65227e-10 1.87223e-09 4.14589e-10 10.2786 0.731801 0.0259123 -3.65237e-10 1.87223e-09 4.14596e-10 2.22167 -0.733487 -0.20892 -5.97477e-14 -4.36306e-15 -1.38709e-13 -17.1402 10.1915 -69.5337 12.887 -5.90952 -23.5397 0.038867 5.45559 -0.769219 8.50296e-10 -2.40773e-08 9.84858e-10 1.47492e-09 -4.17319e-08 1.69639e-09 8.50293e-10 -2.40773e-08 9.84871e-10 -7.73091 5.47488 -0.417314 8.50296e-10 -2.40773e-08 9.84864e-10 -2.90554 0.965183 -0.102902 8.50292e-10 -2.40773e-08 9.84856e-10 -10.2786 0.731801 -0.0259123 8.503e-10 -2.40773e-08 9.84851e-10 -2.22167 -0.733487 0.20892 -2.03217e-16 0.0 -3.88251e-19 -9.28161 -36.2938 7.99719 -0.164281 28.9495 0.405165 -0.663533 0.708623 -9.40469 2.03217e-16 0.0 3.88251e-19 -2.7224 1.46856 -7.22296 0.0587342 17.395 -0.335221 2.14339 -14.3799 6.57389
